<svg version="1.1" xmlns="http://www.w3.org/2000/svg" width="1024" height="1024" viewBox="0 0 1024 1024">
  <path fill="#828282" d="M11.771 105.931h294.252c6.5 0 11.771 5.269 11.771 11.771v110.639c0 6.5-5.269 11.771-11.771 11.771h-294.252c-6.5 0-11.771-5.269-11.771-11.771v-110.639c0-6.5 5.269-11.771 11.771-11.771z"></path>
  <path fill="#828282" d="M11.771 783.888h294.252c6.5 0 11.771 5.269 11.771 11.771v110.639c0 6.5-5.269 11.771-11.771 11.771h-294.252c-6.5 0-11.771-5.269-11.771-11.771v-110.639c0-6.5 5.269-11.771 11.771-11.771z"></path>
  <path fill="#828282" d="M11.771 275.42h1000.457c6.5 0 11.771 5.269 11.771 11.771v110.639c0 6.5-5.269 11.771-11.771 11.771h-1000.457c-6.5 0-11.771-5.269-11.771-11.771v-110.639c0-6.5 5.269-11.771 11.771-11.771z"></path>
  <path fill="#828282" d="M11.771 614.399h1000.457c6.5 0 11.771 5.269 11.771 11.771v110.639c0 6.5-5.269 11.771-11.771 11.771h-1000.457c-6.5 0-11.771-5.269-11.771-11.771v-110.639c0-6.5 5.269-11.771 11.771-11.771z"></path>
  <path fill="#828282" d="M11.771 444.909h470.804c6.5 0 11.771 5.269 11.771 11.771v110.639c0 6.5-5.269 11.771-11.771 11.771h-470.804c-6.5 0-11.771-5.269-11.771-11.771v-110.639c0-6.5 5.269-11.771 11.771-11.771z"></path>
  <path fill="#828282" d="M541.426 444.909h470.804c6.5 0 11.771 5.269 11.771 11.771v110.639c0 6.5-5.269 11.771-11.771 11.771h-470.804c-6.5 0-11.771-5.269-11.771-11.771v-110.639c0-6.5 5.269-11.771 11.771-11.771z"></path>
  <path fill="#828282" d="M364.874 105.931h294.252c6.5 0 11.771 5.269 11.771 11.771v110.639c0 6.5-5.269 11.771-11.771 11.771h-294.252c-6.5 0-11.771-5.269-11.771-11.771v-110.639c0-6.5 5.269-11.771 11.771-11.771z"></path>
  <path fill="#828282" d="M364.874 783.888h294.252c6.5 0 11.771 5.269 11.771 11.771v110.639c0 6.5-5.269 11.771-11.771 11.771h-294.252c-6.5 0-11.771-5.269-11.771-11.771v-110.639c0-6.5 5.269-11.771 11.771-11.771z"></path>
  <path fill="#828282" d="M717.976 105.931h294.252c6.5 0 11.771 5.269 11.771 11.771v110.639c0 6.5-5.269 11.771-11.771 11.771h-294.252c-6.5 0-11.771-5.269-11.771-11.771v-110.639c0-6.5 5.269-11.771 11.771-11.771z"></path>
  <path fill="#828282" d="M717.976 783.888h294.252c6.5 0 11.771 5.269 11.771 11.771v110.639c0 6.5-5.269 11.771-11.771 11.771h-294.252c-6.5 0-11.771-5.269-11.771-11.771v-110.639c0-6.5 5.269-11.771 11.771-11.771z"></path>
</svg>
